<?xml version="1.0" encoding="UTF-8"?>
<svg width="18px" height="20px" viewBox="0 0 18 20" version="1.1" xmlns="http://www.w3.org/2000/svg" xmlns:xlink="http://www.w3.org/1999/xlink">
    <title>形状结合</title>
    <g id="正式稿" stroke="none" stroke-width="1" fill="none" fill-rule="evenodd" opacity="0.3">
        <g id="08远程控制-已选仪表1" transform="translate(-919.000000, -397.000000)" fill="#0AF0F3" fill-rule="nonzero">
            <g id="编组-6" transform="translate(120.000000, 213.000000)">
                <path d="M806.725762,184.222018 C807.018496,183.929037 807.493405,183.929037 807.786386,184.222018 L807.786386,184.222018 L816.646951,193.082724 C816.959335,193.395108 816.959335,193.901802 816.646951,194.214151 C813.6935,197.16792 810.739837,200.121371 807.786386,203.074857 C807.493405,203.367838 807.018496,203.367838 806.725762,203.074857 C806.432745,202.782122 806.432745,202.307249 806.725762,202.014232 C809.514113,199.225599 812.302746,196.436965 815.091309,193.648296 C812.302711,190.85991 809.514113,188.071276 806.725762,185.282643 C806.432745,184.989661 806.432745,184.515035 806.725762,184.222018 Z M799.229139,184.222018 C799.522156,183.929037 799.99703,183.929037 800.290046,184.222018 L800.290046,184.222018 L809.150611,193.082724 C809.462995,193.395108 809.462995,193.90152 809.150611,194.214151 L809.150611,194.214151 L800.290046,203.074857 C799.99703,203.367838 799.522156,203.367838 799.229139,203.074857 C798.936405,202.78184 798.936405,202.306967 799.229139,202.014232 C802.017738,199.225599 804.806371,196.436965 807.594934,193.648296 L807.594934,193.648296 L799.229139,185.282643 C798.936405,184.989661 798.936405,184.514753 799.229139,184.222018 Z" id="形状结合"></path>
            </g>
        </g>
    </g>
</svg>