<?xml version="1.0" encoding="UTF-8"?>
<svg width="15px" height="15px" viewBox="0 0 15 15" version="1.1" xmlns="http://www.w3.org/2000/svg" xmlns:xlink="http://www.w3.org/1999/xlink">
    <title>形状结合</title>
    <defs>
        <linearGradient x1="10.9472757%" y1="0%" x2="100%" y2="100%" id="linearGradient-1">
            <stop stop-color="#0AF0F3" offset="0%"></stop>
            <stop stop-color="#089DDB" offset="100%"></stop>
        </linearGradient>
    </defs>
    <g id="正式稿" stroke="none" stroke-width="1" fill="none" fill-rule="evenodd">
        <g id="25阈值管理-新增" transform="translate(-886.000000, -432.000000)" fill="url(#linearGradient-1)" fill-rule="nonzero">
            <g id="编组-5" transform="translate(418.000000, 187.000000)">
                <path d="M478.067114,245 C478.671141,245 479.174497,245.506547 479.174497,246.137147 L479.174497,246.137147 L479.174497,247.057202 L482.486577,247.057202 C482.768456,247.057202 483,247.294969 483,247.584425 C483,247.87388 482.768456,248.111647 482.486577,248.111647 L482.486577,248.111647 L480.765,248.111 L480.765101,258.718125 C480.765101,259.010535 480.668949,259.295349 480.495666,259.520488 L480.402685,259.627843 C480.171141,259.86561 479.85906,260 479.526846,260 L479.526846,260 L471.483221,260 C470.788591,260 470.224832,259.421089 470.224832,258.707788 L470.224832,258.707788 L470.224,248.111 L468.513423,248.111647 C468.262864,248.111647 468.052076,247.923782 468.008327,247.67874 L468,247.584425 C468,247.294969 468.231544,247.057202 468.513423,247.057202 L468.513423,247.057202 L471.855705,247.057202 L471.855705,246.137147 C471.855705,245.516885 472.348993,245 472.963087,245 L472.963087,245 Z M473.02349,250.282564 C472.771812,250.282564 472.57047,250.489318 472.57047,250.74776 L472.57047,250.74776 L472.57047,256.49552 C472.57047,256.753963 472.771812,256.960717 473.02349,256.960717 C473.144295,256.960717 473.255034,256.919366 473.345638,256.826327 C473.426174,256.743625 473.47651,256.619573 473.47651,256.49552 L473.47651,256.49552 L473.47651,250.74776 C473.47651,250.489318 473.275168,250.282564 473.02349,250.282564 Z M475.5,250.282564 C475.248322,250.282564 475.04698,250.489318 475.04698,250.74776 L475.04698,250.74776 L475.04698,256.49552 C475.04698,256.753963 475.248322,256.960717 475.5,256.960717 C475.751678,256.960717 475.95302,256.753963 475.95302,256.49552 L475.95302,256.49552 L475.95302,250.74776 C475.95302,250.489318 475.751678,250.282564 475.5,250.282564 Z M477.986577,250.282564 C477.724832,250.282564 477.52349,250.489318 477.52349,250.74776 L477.52349,250.74776 L477.52349,256.485183 C477.533557,256.753963 477.734899,256.960717 477.986577,256.960717 C478.238255,256.960717 478.439597,256.753963 478.439597,256.49552 L478.439597,256.49552 L478.439597,250.74776 C478.439597,250.489318 478.238255,250.282564 477.986577,250.282564 Z M478.147651,246.044108 L472.88255,246.044108 L472.88255,247.057202 L478.147651,247.057202 L478.147651,246.044108 Z" id="形状结合"></path>
            </g>
        </g>
    </g>
</svg>