<?xml version="1.0" encoding="UTF-8"?>
<svg width="15px" height="15px" viewBox="0 0 15 15" version="1.1" xmlns="http://www.w3.org/2000/svg" xmlns:xlink="http://www.w3.org/1999/xlink">
    <title>形状结合</title>
    <defs>
        <linearGradient x1="10.9472757%" y1="6.61814539%" x2="100%" y2="93.3818546%" id="linearGradient-1">
            <stop stop-color="#0AF0F3" offset="0%"></stop>
            <stop stop-color="#089DDB" offset="100%"></stop>
        </linearGradient>
    </defs>
    <g id="正式稿" stroke="none" stroke-width="1" fill="none" fill-rule="evenodd">
        <g id="11关键链路节点频谱分析" transform="translate(-132.000000, -248.000000)" fill="url(#linearGradient-1)" fill-rule="nonzero">
            <g id="编组" transform="translate(132.000000, 247.000000)">
                <path d="M3.81958788,11.6377057 C4.11411623,11.6377057 4.35287863,11.8777826 4.35287863,12.1739325 L4.352,13.2550479 L14.4187416,13.2559616 C14.5601791,13.2559616 14.6958237,13.3124567 14.7958351,13.4130188 C14.8958465,13.5135808 14.9520323,13.6499722 14.9520323,13.7921884 C14.9520323,13.9344046 14.8958465,14.0707959 14.7958351,14.171358 C14.6958237,14.27192 14.5601791,14.3284152 14.4187416,14.3284152 L4.352,14.3280479 L4.35287863,15.3817178 C4.35287863,15.6778677 4.11411623,15.9179446 3.81958788,15.9179446 L3.81958788,15.946671 L0.57222812,15.946671 C0.419209086,15.9579347 0.268778578,15.9023849 0.159380412,15.7942178 C0.0499822453,15.6860506 -0.007783697,15.5357468 0.000845170217,15.3817178 L0.000845170217,12.1739325 C0.000466355379,12.0248244 0.0618503965,11.8822908 0.17026017,11.7805513 C0.278669943,11.6788118 0.424314763,11.6270546 0.57222812,11.6377057 L3.81958788,11.6377057 Z M3.28629714,12.7197348 L1.06742668,12.7197348 L1.06742668,14.8742174 L3.28629714,14.8742174 L3.28629714,12.7197348 Z M14.4663568,7.08935342 C14.7608852,7.08935342 14.9996476,7.32943033 14.9996476,7.62558021 L14.9996476,10.8525165 C15.0021959,10.9947392 14.9484398,11.1321525 14.8502095,11.2345153 C14.7519792,11.336878 14.6173247,11.3958017 14.4758799,11.3983187 L11.1809049,11.3983187 C10.8885092,11.3932044 10.6527004,11.1560974 10.6476141,10.8620919 L10.647,9.7800479 L0.57222812,9.78006288 C0.430790617,9.78006288 0.295146026,9.72356772 0.19513461,9.62300568 C0.0951231936,9.52244365 0.0389373669,9.38605226 0.0389373705,9.24383607 C0.0338047073,9.09743854 0.0874135836,8.95511133 0.18770793,8.84886231 C0.288002277,8.7426133 0.426562589,8.68136188 0.57222812,8.67888285 L10.647,8.6780479 L10.6476141,7.62558021 C10.6476141,7.32943033 10.8863765,7.08935342 11.1809049,7.08935342 L14.4663568,7.08935342 Z M13.9044969,8.161807 L11.7141956,8.161807 L11.7141956,10.3162897 L13.9044969,10.3162897 L13.9044969,8.161807 Z M3.88624923,1.9760479 C4.02768673,1.9760479 4.16333132,2.03254306 4.26334273,2.1331051 C4.36335415,2.23366713 4.41953998,2.37005851 4.41953998,2.5122747 L4.419,3.6320479 L14.4854029,3.63260568 C14.6268713,3.63759511 14.7605627,3.69893414 14.8570211,3.80310804 C14.9534796,3.90728195 15.0047901,4.04574269 14.9996476,4.18798344 C14.9853696,4.46739391 14.7632835,4.69070265 14.4854029,4.70505927 L4.419,4.7050479 L4.41953998,5.8062393 C4.41953998,5.94845549 4.36335415,6.08484687 4.26334273,6.1854089 C4.16333132,6.28597093 4.02768673,6.34246609 3.88624923,6.34246609 L3.88624923,6.32331513 L0.57222812,6.32331513 C0.296114342,6.30858466 0.0769932253,6.08410004 0.0675065138,5.8062393 L0.0675065138,2.55057661 C0.0570734553,2.40671175 0.104724425,2.26468739 0.199697956,2.15657825 C0.294671487,2.04846911 0.428957211,1.98339344 0.57222812,1.9760479 L3.88624923,1.9760479 Z M3.34343542,3.08680341 L1.13408803,3.08680341 L1.13408803,5.24128608 L3.34343542,5.24128608 L3.34343542,3.08680341 Z" id="形状结合"></path>
            </g>
        </g>
    </g>
</svg>