<?xml version="1.0" encoding="UTF-8"?>
<svg width="25px" height="25px" viewBox="0 0 25 25" version="1.1" xmlns="http://www.w3.org/2000/svg" xmlns:xlink="http://www.w3.org/1999/xlink">
    <title>密码</title>
    <g id="正式稿" stroke="none" stroke-width="1" fill="none" fill-rule="evenodd">
        <g id="登录页" transform="translate(-550.000000, -392.000000)" fill-rule="nonzero">
            <g id="密码" transform="translate(550.000000, 392.000000)">
                <rect id="矩形" fill="#000000" opacity="0" x="0" y="0" width="25" height="25"></rect>
                <path d="M19.320459,11.2077637 L8.11015625,11.1884521 C8.10561523,9.67634277 7.69885254,7.33283691 8.98972168,5.91032715 C9.77443848,5.04313965 11.09729,4.15085449 12.5084473,4.15085449 C14.5932861,4.15085449 16.1521484,5.72341309 16.9070312,7.66955566 C17.1269775,8.23088379 17.3205078,8.5333252 17.7868408,8.54936523 C18.95625,8.58476562 18.8851318,7.35124512 18.6664551,6.78991699 C17.5760254,3.98022461 15.5302246,2.39143066 12.5084473,2.39143066 C10.4547363,2.39143066 9.32302246,2.81293945 8.11015625,4.15083008 C6.25446777,6.19541016 6.34602051,9.50119629 6.35070801,11.1884277 L5.6965332,11.2077393 C5.08508301,11.2077393 4.59123535,11.6968506 4.59123535,12.2982422 L4.59123535,21.5328369 C4.59123535,22.1376709 5.08608398,22.6254883 5.6965332,22.6254883 L19.3193359,22.6254883 C19.9299072,22.6254883 20.4246357,22.1374756 20.4246357,21.5328369 L20.4246357,12.2982666 C20.4257568,11.6957764 19.9310303,11.2077637 19.320459,11.2077637 Z M18.6933594,19.979248 C18.6933594,20.2225586 18.6084961,20.43125 18.4350586,20.6022949 C18.2630615,20.7744385 18.0551758,20.8605957 17.812085,20.8605957 L7.23540039,20.8605957 C6.99208984,20.8605957 6.78442383,20.7756836 6.61345215,20.6022949 C6.44130859,20.4302002 6.35407715,20.222583 6.35407715,19.979248 L6.35407715,13.8094482 C6.35407715,13.3241455 6.74875488,12.9292236 7.23537598,12.9292236 L17.8118408,12.9292236 C18.2984619,12.9292236 18.6933594,13.3241455 18.6933594,13.8094482 L18.6933594,19.979248 Z" id="形状" fill="#FFFFFF"></path>
            </g>
        </g>
    </g>
</svg>