<?xml version="1.0" encoding="UTF-8"?>
<svg width="16px" height="15px" viewBox="0 0 16 15" version="1.1" xmlns="http://www.w3.org/2000/svg" xmlns:xlink="http://www.w3.org/1999/xlink">
    <title>形状</title>
    <defs>
        <linearGradient x1="10.9472757%" y1="3.40520435%" x2="100%" y2="96.5947957%" id="linearGradient-1">
            <stop stop-color="#0AF0F3" offset="0%"></stop>
            <stop stop-color="#089DDB" offset="100%"></stop>
        </linearGradient>
    </defs>
    <g id="正式稿" stroke="none" stroke-width="1" fill="none" fill-rule="evenodd">
        <g id="12关键链路节点频谱分析-结果" transform="translate(-263.000000, -248.000000)" fill="url(#linearGradient-1)" fill-rule="nonzero">
            <path d="M278.538445,261.928366 L278.538445,263 L263.000284,263 L263.000284,261.928366 L278.538445,261.928366 Z M273.204838,248.01708 C273.338386,248.051405 273.446816,248.133689 273.516989,248.240653 L273.562773,248.32514 L276.077554,254.190973 L278.538445,254.190973 L278.538445,255.262607 L275.725663,255.262607 L275.725663,255.261327 C275.517671,255.261327 275.320166,255.139397 275.233819,254.935849 L273.194423,250.179082 L271.038855,258.458811 C271.005404,258.635592 270.883723,258.790973 270.703387,258.859367 C270.427214,258.965123 270.117839,258.825917 270.012687,258.549921 L267.521723,252.043866 L266.323751,255.022871 C266.255178,255.239892 266.052412,255.396766 265.813031,255.396766 L263,255.396624 L263,254.324918 L265.452253,254.324918 L267.038233,250.381422 C267.148112,250.106706 267.459194,249.974182 267.733092,250.084062 C267.871634,250.13925 267.980686,250.250004 268.033722,250.389384 L268.034469,250.389384 L270.416478,256.61013 L272.553917,248.400111 C272.627963,248.114802 272.919387,247.943424 273.204838,248.01708 Z M263.000284,259.115478 L278.538445,259.115478 L278.538445,260.186969 L263.000284,260.186969 L263.000284,259.115478 Z" id="形状"></path>
        </g>
    </g>
</svg>