<?xml version="1.0" encoding="UTF-8"?>
<svg width="45px" height="45px" viewBox="0 0 45 45" version="1.1" xmlns="http://www.w3.org/2000/svg" xmlns:xlink="http://www.w3.org/1999/xlink">
    <!-- Generator: Sketch 59 (86127) - https://sketch.com -->
    <title>形状结合</title>
    <desc>Created with Sketch.</desc>
    <g id="版本一" stroke="none" stroke-width="1" fill="none" fill-rule="evenodd">
        <g id="21修改密码3" transform="translate(-165.000000, -274.000000)" fill="#0AF0F3" fill-rule="nonzero">
            <g id="Group" transform="translate(100.000000, 225.000000)">
                <g id="成功-(3)" transform="translate(65.000000, 49.000000)">
                    <path d="M22.5096968,0.838922873 C34.4461233,0.838922873 44.1224661,10.5152657 44.1224661,22.4516922 L44.1224661,22.4516922 L44.1195706,22.8090981 C43.9287132,34.5806305 34.326759,44.0644615 22.5096968,44.0644615 C10.5733186,44.0644615 0.89692749,34.3881187 0.89692749,22.4516922 L0.89692749,22.4516922 L0.899822977,22.0942848 C1.09068035,10.3227065 10.6926346,0.838922873 22.5096968,0.838922873 Z M35.1554146,14.4369335 C34.5124939,13.8036808 33.4731861,13.8036808 32.8350994,14.4369335 L32.8350994,14.4369335 L18.5844969,28.7262079 L12.0731124,22.9205859 C11.4591956,22.2921672 10.4633937,22.2921672 9.84947697,22.9205859 C9.23556024,23.5441706 9.23556024,24.5593085 9.84947697,25.1877272 L9.84947697,25.1877272 L17.5113511,32.0181551 C17.8303945,32.3468664 18.2606196,32.5015541 18.6811767,32.4870521 C19.1210698,32.5015541 19.5657969,32.3468664 19.9041762,32.0133211 L19.9041762,32.0133211 L35.1554146,16.7234108 C35.7935013,16.0901581 35.7935013,15.0701862 35.1554146,14.4369335 Z" id="形状结合"></path>
                </g>
            </g>
        </g>
    </g>
</svg>
