<?xml version="1.0" encoding="UTF-8"?>
<svg width="25px" height="27px" viewBox="0 0 25 27" version="1.1" xmlns="http://www.w3.org/2000/svg" xmlns:xlink="http://www.w3.org/1999/xlink">
    <title>用户</title>
    <g id="正式稿" stroke="none" stroke-width="1" fill="none" fill-rule="evenodd">
        <g id="登录页" transform="translate(-550.000000, -322.000000)" fill-rule="nonzero">
            <g id="用户" transform="translate(550.000000, 322.000000)">
                <rect id="矩形" fill="#000000" opacity="0" x="0" y="0" width="25" height="25"></rect>
                <path d="M15.1806641,17.6777344 C17.2998047,16.4692383 18.7475586,14.2133789 18.7475586,11.5986328 C18.7475586,7.71923828 15.6030273,4.57470703 11.7236328,4.57470703 C7.84423828,4.57470703 4.69970703,7.71923828 4.69970703,11.5986328 C4.69970703,14.2133789 6.14501953,16.4692383 8.26660156,17.6777344 C4.60449219,19.0083008 1.92626953,22.3823242 1.61865234,26.425293 L3.17871094,26.425293 C3.57421875,22.0576172 7.25341797,18.6225586 11.7236328,18.6225586 C16.1938477,18.6225586 19.8730469,22.0576172 20.2685547,26.425293 L21.8286133,26.425293 C21.5209961,22.3823242 18.8427734,19.0083008 15.1806641,17.6777344 Z M6.25976562,11.5986328 C6.25976562,8.5859375 8.7109375,6.13720703 11.7236328,6.13720703 C14.7363281,6.13720703 17.1875,8.5859375 17.1875,11.5986328 C17.1875,14.6113281 14.7363281,17.0600586 11.7236328,17.0600586 C8.7109375,17.0600586 6.25976562,14.6113281 6.25976562,11.5986328 Z" id="形状" fill="#FFFFFF"></path>
            </g>
        </g>
    </g>
</svg>