<?xml version="1.0" encoding="UTF-8"?>
<svg width="37px" height="50px" viewBox="0 0 37 50" version="1.1" xmlns="http://www.w3.org/2000/svg" xmlns:xlink="http://www.w3.org/1999/xlink">
    <title>形状结合</title>
    <defs>
        <linearGradient x1="28.6147282%" y1="0%" x2="77.38%" y2="100%" id="linearGradient-1">
            <stop stop-color="#0AF0F3" offset="0%"></stop>
            <stop stop-color="#089DDB" offset="100%"></stop>
        </linearGradient>
    </defs>
    <g id="正式稿" stroke="none" stroke-width="1" fill="none" fill-rule="evenodd">
        <g id="07远程控制-空状态" transform="translate(-701.000000, -372.000000)" fill="url(#linearGradient-1)" fill-rule="nonzero">
            <path d="M734.105254,372 C736.253253,372 738,373.725404 738,375.846136 L738,380.664587 C738,383.997077 736.756284,387.196702 734.497982,389.673763 L727.811457,397.003522 L734.494096,404.325321 C736.75524,406.802382 738,410.002923 738,413.337761 L738,418.153864 C738,420.275112 736.253195,422 734.105196,422 L704.894746,422 C702.746747,422 701,420.275054 701,418.153864 L701,413.337761 C701,410.002465 702.24563,406.801923 704.506773,404.324862 L711.188485,397.003522 L704.503004,389.673763 C702.243774,387.19716 701,383.997535 701,380.664587 L701,375.846136 C701,373.725404 702.746805,372 704.894804,372 L734.105254,372 Z M734.105254,375.846136 L704.894746,375.846136 L704.894746,380.664587 C704.894746,383.045379 705.783777,385.330932 707.39743,387.099975 L715.257268,395.717143 C715.924766,396.448642 715.923838,397.559892 715.25634,398.29139 L707.399402,406.900083 C705.783893,408.669641 704.894746,410.955595 704.894746,413.337818 L704.894746,418.153921 L734.105254,418.153921 L734.105254,413.337818 C734.105254,410.955595 733.216223,408.669641 731.601642,406.900083 L723.743718,398.29139 C723.07622,397.559891 723.075292,396.448642 723.74279,395.717143 L731.603556,387.099975 C733.217151,385.330416 734.105254,383.044921 734.105254,380.664587 L734.105254,375.846136 Z M729.237039,409.499814 L729.237039,412.384402 C729.237039,413.446457 728.365173,414.307441 727.289695,414.307441 L727.289695,414.307441 L711.710769,414.307441 C710.63529,414.307441 709.763425,413.446457 709.763425,412.384402 L709.763425,412.384402 L709.763425,409.499814 L729.237039,409.499814 Z" id="形状结合"></path>
        </g>
    </g>
</svg>