<?xml version="1.0" encoding="UTF-8"?>
<svg width="15px" height="14px" viewBox="0 0 15 14" version="1.1" xmlns="http://www.w3.org/2000/svg" xmlns:xlink="http://www.w3.org/1999/xlink">
    <title>形状结合</title>
    <g id="正式稿" stroke="none" stroke-width="1" fill="none" fill-rule="evenodd">
        <g id="新导航样式" transform="translate(-17.000000, -402.000000)" fill="#FFFFFF" fill-rule="nonzero">
            <path d="M23.8312102,402.114835 C24.0972557,401.961722 24.4250373,401.961722 24.6910828,402.114835 C24.9571283,402.267949 25.1210191,402.550915 25.1210191,402.857143 C25.1210191,403.278206 24.8164412,403.628357 24.4149232,403.700618 L24.2611465,406.285714 C25.1210191,406.47619 25.8853503,407.047619 26.3630573,407.809524 L26.3630573,407.809524 L27.2514914,407.184371 C27.172131,407.028948 27.1273885,406.853016 27.1273885,406.666667 C27.1273885,406.035484 27.6406926,405.52381 28.2738854,405.52381 C28.9070781,405.52381 29.4203822,406.035484 29.4203822,406.666667 C29.4203822,407.297849 28.9070781,407.809524 28.2738854,407.809524 C27.9802509,407.809524 27.7123987,407.699488 27.5095629,407.518525 L26.5541401,408.190476 C26.7452229,408.571429 26.8407643,408.952381 26.8407643,409.428571 C26.8407643,409.809524 26.7452229,410.190476 26.6496815,410.571429 L26.6496815,410.571429 L29.7023185,411.823839 C29.8084723,411.653134 29.956428,411.507858 30.1369427,411.403969 C30.5212306,411.182804 30.9946929,411.182804 31.3789809,411.403969 C31.7632689,411.625133 32,412.033862 32,412.47619 C32,413.159972 31.4439205,413.714286 30.7579618,413.714286 C30.072003,413.714286 29.5159236,413.159972 29.5159236,412.47619 C29.5159236,412.377178 29.5277853,412.279848 29.5505085,412.18593 L26.4585987,410.952381 C25.8853503,411.904762 24.9299363,412.571429 23.6878981,412.571429 C22.9235669,412.571429 22.2547771,412.380952 21.6815287,411.904762 L21.6815287,411.904762 L20.1342507,413.447613 C20.3831609,413.718675 20.5350318,414.079753 20.5350318,414.47619 C20.5350318,415.317767 19.8506264,416 19.0063694,416 C18.1621125,416 17.477707,415.317767 17.477707,414.47619 C17.477707,413.634614 18.1621125,412.952381 19.0063694,412.952381 C19.281319,412.952381 19.5393145,413.024739 19.7622374,413.151395 L21.2993631,411.619048 C20.7261146,411.047619 20.4394904,410.285714 20.4394904,409.428571 C20.4394904,409.047619 20.5350318,408.761905 20.6305732,408.380952 L20.6305732,408.380952 L19.0830126,407.802277 C18.8753719,408.094768 18.5333043,408.285714 18.1464968,408.285714 C17.5133041,408.285714 17,407.77404 17,407.142857 C17,406.511675 17.5133041,406 18.1464968,406 C18.7796895,406 19.2929936,406.511675 19.2929936,407.142857 C19.2929936,407.240799 19.280634,407.335864 19.2573848,407.426586 L20.7261146,408 C21.2993631,407.047619 22.3503185,406.285714 23.5923567,406.285714 L23.5923567,406.285714 L23.7834395,406.285714 L23.9340403,403.650087 C23.6213828,403.521788 23.4012739,403.215088 23.4012739,402.857143 C23.4012739,402.550915 23.5651647,402.267949 23.8312102,402.114835 Z" id="形状结合"></path>
        </g>
    </g>
</svg>