<?xml version="1.0" encoding="UTF-8"?>
<svg width="15px" height="15px" viewBox="0 0 15 15" version="1.1" xmlns="http://www.w3.org/2000/svg" xmlns:xlink="http://www.w3.org/1999/xlink">
    <title>形状结合</title>
    <g id="正式稿" stroke="none" stroke-width="1" fill="none" fill-rule="evenodd">
        <g id="新导航样式" transform="translate(-17.000000, -240.000000)" fill="#FFFFFF" fill-rule="nonzero">
            <path d="M31.2083897,248.069684 C31.6430988,248.069684 31.9966171,248.459556 32,248.938494 L32,248.938494 L32,252.665808 C32,253.146426 31.6464817,253.534618 31.2100812,253.534618 L31.2100812,253.534618 L28.6136671,253.534618 L28.6136671,254.329487 L30.0209743,254.329487 C30.1224628,254.329487 30.2053451,254.452162 30.2053451,254.603406 L30.2053451,254.603406 L30.2053451,254.726081 C30.2053451,254.877325 30.1224628,255 30.0209743,255 L30.0209743,255 L26.4824087,255 C26.3809202,255 26.2980379,254.877325 26.2980379,254.726081 L26.2980379,254.726081 L26.2980379,254.603406 C26.2980379,254.452162 26.3809202,254.329487 26.4824087,254.329487 L26.4824087,254.329487 L27.9353857,254.329487 L27.9353857,253.534618 L25.3288227,253.534618 C24.8924222,253.534618 24.5389039,253.144746 24.5389039,252.665808 L24.5389039,252.665808 L24.5389039,248.938494 C24.5389039,248.457876 24.8924222,248.069684 25.3288227,248.069684 L25.3288227,248.069684 Z M17.943843,248.746919 C18.1299053,248.746919 18.282138,248.898163 18.282138,249.083016 L18.282138,249.083016 L18.282138,253.843827 L23.8809202,253.843827 C24.0686739,253.843827 24.2192152,253.996751 24.2192152,254.181604 C24.2192152,254.366458 24.0669824,254.517701 23.8809202,254.517701 L23.8809202,254.517701 L17.605548,254.517701 L17.605548,249.083016 C17.605548,248.898163 17.7577808,248.746919 17.943843,248.746919 Z M22.9928958,240 C23.5493911,240 24.0010149,240.48566 24.0010149,241.080551 L24.0010149,241.080551 L24.0010149,244.273471 C24.0010149,244.870043 23.5476996,245.354022 22.9928958,245.354022 L22.9928958,245.354022 L20.614682,245.354022 L20.614682,246.11192 L22.0135318,246.11192 C22.1200947,246.11192 22.2063599,246.239637 22.2063599,246.399283 L22.2063599,246.399283 L22.2063599,246.496751 C22.2063599,246.654717 22.1200947,246.784114 22.0135318,246.784114 L22.0135318,246.784114 L18.4935724,246.784114 C18.3870095,246.784114 18.3007442,246.656397 18.3007442,246.496751 L18.3007442,246.496751 L18.3007442,246.399283 C18.3007442,246.241317 18.3870095,246.11192 18.4935724,246.11192 L18.4935724,246.11192 L19.938092,246.11192 L19.938092,245.355702 L18.0081191,245.355702 C17.4516238,245.355702 17,244.870043 17,244.275151 L17,244.275151 L17,241.080551 C17,240.483979 17.4533153,240 18.0081191,240 L18.0081191,240 Z M31.1474966,240.700762 L31.1474966,246.133767 C31.1474966,246.31862 30.9952639,246.469863 30.8092016,246.469863 C30.6231394,246.469863 30.4709066,246.31862 30.4709066,246.133767 L30.4709066,246.133767 L30.4709066,241.372955 L24.8721245,241.372955 C24.6860622,241.372955 24.5338295,241.221712 24.5338295,241.036859 C24.5338295,240.852005 24.6860622,240.700762 24.8721245,240.700762 L24.8721245,240.700762 L31.1474966,240.700762 Z M22.9928958,240.672194 L18.0081191,240.672194 C17.8254398,240.672194 17.67659,240.855366 17.67659,241.080551 L17.67659,241.080551 L17.67659,244.275151 C17.67659,244.498656 17.8254398,244.681828 18.0081191,244.683509 L18.0081191,244.683509 L22.9928958,244.683509 C23.1755751,244.683509 23.3244249,244.500336 23.3244249,244.275151 L23.3244249,244.275151 L23.3244249,241.080551 C23.3244249,240.855366 23.1755751,240.672194 22.9928958,240.672194 L22.9928958,240.672194 Z M22.5666441,241.125924 C22.7527064,241.125924 22.9049391,241.277168 22.9049391,241.462021 L22.9049391,243.814699 C22.9049391,243.999552 22.7527064,244.150795 22.5666441,244.150795 L18.4563599,244.150795 C18.2702977,244.150795 18.118065,243.999552 18.118065,243.814699 L18.118065,241.462021 C18.118065,241.277168 18.2702977,241.125924 18.4563599,241.125924 L22.5666441,241.125924 Z" id="形状结合"></path>
        </g>
    </g>
</svg>